<?xml version="1.0" encoding="UTF-8" standalone="no"?>
<!DOCTYPE svg PUBLIC "-//W3C//DTD SVG 1.1//EN" "http://www.w3.org/Graphics/SVG/1.1/DTD/svg11.dtd">
<svg width="100%" height="100%" viewBox="0 0 1012 300" version="1.1" xmlns="http://www.w3.org/2000/svg" xmlns:xlink="http://www.w3.org/1999/xlink" xml:space="preserve" xmlns:serif="http://www.serif.com/" style="fill-rule:evenodd;clip-rule:evenodd;stroke-linejoin:round;stroke-miterlimit:2;">
    <rect x="0" y="0" width="1012" height="300" style="fill:rgb(13,17,23);"/>
    <g transform="matrix(4.8159,0,0,4.8159,-1459.17,-546.282)">
        <text x="391.502px" y="149.329px" style="font-family:'AppleGothic';font-size:12px;fill:rgb(65,174,255);">c<tspan x="397.85px " y="149.329px ">f</tspan></text>
    </g>
    <g transform="matrix(1,0,0,1,7,0)">
        <path d="M484.86,172.34C487.247,172.34 489.283,171.867 490.97,170.92C492.657,169.973 493.873,168.61 494.62,166.83L495.03,166.83L495.03,171.81L498.72,171.81L498.72,150.13C498.72,146.93 497.73,144.437 495.75,142.65C493.763,140.863 490.983,139.97 487.41,139.97C485.377,139.97 483.537,140.317 481.89,141.01C480.237,141.703 478.89,142.653 477.85,143.86C476.803,145.073 476.183,146.47 475.99,148.05L479.79,148.05C480.243,146.53 481.13,145.36 482.45,144.54C483.763,143.72 485.417,143.31 487.41,143.31C489.83,143.31 491.677,143.91 492.95,145.11C494.217,146.31 494.85,148.043 494.85,150.31L494.85,153.3L485.71,153.71C482.237,153.863 479.547,154.737 477.64,156.33C475.733,157.923 474.78,160.107 474.78,162.88C474.78,165.727 475.703,168.017 477.55,169.75C479.397,171.477 481.833,172.34 484.86,172.34ZM485.8,168.94C483.613,168.94 481.89,168.397 480.63,167.31C479.37,166.23 478.74,164.753 478.74,162.88C478.74,159.087 481.153,157.083 485.98,156.87L494.85,156.49L494.85,160.88C494.85,162.387 494.45,163.75 493.65,164.97C492.85,166.19 491.767,167.157 490.4,167.87C489.033,168.583 487.5,168.94 485.8,168.94ZM513.72,148.43C513.72,152.71 516.513,155.503 522.1,156.81L526.76,157.92C528.907,158.433 530.44,159.103 531.36,159.93C532.273,160.763 532.73,161.9 532.73,163.34C532.73,165.06 532.033,166.44 530.64,167.48C529.24,168.513 527.36,169.03 525,169.03C522.813,169.03 520.993,168.577 519.54,167.67C518.08,166.757 517.147,165.49 516.74,163.87L512.75,163.87C513.043,166.47 514.273,168.527 516.44,170.04C518.613,171.553 521.407,172.31 524.82,172.31C528.413,172.31 531.297,171.47 533.47,169.79C535.637,168.11 536.72,165.883 536.72,163.11C536.72,160.883 536.007,159.083 534.58,157.71C533.153,156.33 530.927,155.28 527.9,154.56L523.62,153.56C521.473,153.053 519.93,152.39 518.99,151.57C518.057,150.75 517.59,149.657 517.59,148.29C517.59,146.65 518.243,145.34 519.55,144.36C520.857,143.387 522.603,142.9 524.79,142.9C526.803,142.9 528.483,143.343 529.83,144.23C531.177,145.117 532.017,146.333 532.35,147.88L536.13,147.88C535.797,145.38 534.617,143.39 532.59,141.91C530.557,140.437 527.997,139.7 524.91,139.7C521.59,139.7 518.897,140.507 516.83,142.12C514.757,143.733 513.72,145.837 513.72,148.43ZM560.71,132.03L556.87,132.03L556.87,140.23L548.38,140.23L548.38,143.48L556.87,143.48L556.87,162.67C556.87,164.743 557.29,166.467 558.13,167.84C558.97,169.22 560.23,170.25 561.91,170.93C563.59,171.617 565.69,171.96 568.21,171.96C569.13,171.96 570.197,171.92 571.41,171.84C572.617,171.76 573.453,171.683 573.92,171.61L573.92,168.33C573.413,168.403 572.643,168.46 571.61,168.5C570.577,168.54 569.513,168.56 568.42,168.56C565.92,168.56 564.01,168.047 562.69,167.02C561.37,165.993 560.71,164.503 560.71,162.55L560.71,143.48L573.92,143.48L573.92,140.23L560.71,140.23L560.71,132.03Z" style="fill:white;fill-rule:nonzero;"/>
    </g>
</svg>
